<svg width="100" height="37" viewBox="0 0 100 37" fill="none" xmlns="http://www.w3.org/2000/svg">
<rect y="0.400024" width="100" height="36" fill="#333333"/>
<path d="M12.7624 26.6148V15.4111H15.1035V26.6148H12.7624ZM13.9329 13.313C13.0651 13.313 12.5 12.763 12.5 11.9074C12.5 11.0722 13.0651 10.5222 13.9329 10.5222C14.7806 10.5222 15.386 11.0722 15.386 11.9074C15.386 12.763 14.7806 13.313 13.9329 13.313Z" fill="white"/>
<path d="M21.8057 26.6148V13.6185H17.4464V11.6222H28.5263V13.6185H24.167V26.6148H21.8057Z" fill="white"/>
<path d="M29.8304 26.6148V15.4111H31.7276L31.9294 17.4278H31.9899C32.777 15.9815 33.9476 15.126 35.1383 15.126C35.6833 15.126 36.0264 15.2074 36.3694 15.3704L35.9658 17.4074C35.5823 17.2852 35.2998 17.2241 34.8356 17.2241C33.9476 17.2241 32.8578 17.876 32.1716 19.6482V26.6148H29.8304Z" fill="white"/>
<path d="M40.0618 26.9C38.1647 26.9 36.8125 25.6167 36.8125 23.6408C36.8125 21.2371 38.8307 19.9945 43.4322 19.4852C43.4121 18.1815 42.9479 17.0408 41.3333 17.0408C40.1627 17.0408 39.0527 17.5908 38.1243 18.2019L37.2565 16.5926C38.3867 15.8797 39.9609 15.126 41.7369 15.126C44.5019 15.126 45.7734 16.8982 45.7734 19.8926V26.6148H43.8561L43.6744 25.3519H43.5937C42.5846 26.2278 41.3938 26.9 40.0618 26.9ZM40.7884 25.026C41.7571 25.026 42.524 24.5778 43.4322 23.7222V20.9926C40.1426 21.3797 39.0527 22.2148 39.0527 23.4778C39.0527 24.5778 39.7995 25.026 40.7884 25.026Z" fill="white"/>
<path d="M53.5676 26.9C50.5806 26.9 48.2799 24.7408 48.2799 21.0334C48.2799 17.2852 50.843 15.126 53.7694 15.126C55.1822 15.126 56.2115 15.6963 56.9986 16.4297L55.8684 17.9371C55.2629 17.4074 54.6373 17.0815 53.8905 17.0815C51.9934 17.0815 50.6816 18.65 50.6816 21.0334C50.6816 23.3963 51.953 24.9648 53.8098 24.9648C54.7382 24.9648 55.5656 24.5167 56.2316 23.9463L57.1802 25.5148C56.1711 26.4111 54.8593 26.9 53.5676 26.9Z" fill="white"/>
<path d="M59.4729 26.6148V10.4H61.7737V20.8297H61.8544L66.1532 15.4111H68.7365L64.9826 19.9741L69.1603 26.6148H66.6174L63.6102 21.5426L61.7737 23.7222V26.6148H59.4729Z" fill="white"/>
<path d="M75.1716 26.9C72.1443 26.9 69.7628 24.7204 69.7628 21.0334C69.7628 17.3871 72.2452 15.126 74.8285 15.126C77.7549 15.126 79.3493 17.2648 79.3493 20.4426C79.3493 20.9111 79.3089 21.3593 79.2484 21.6445H72.0434C72.225 23.7834 73.557 25.0463 75.4743 25.0463C76.4633 25.0463 77.2907 24.7408 78.1182 24.2111L78.9255 25.7185C77.8962 26.4111 76.6247 26.9 75.1716 26.9ZM72.003 20.0148H77.3311C77.3311 18.0797 76.4834 16.9797 74.8689 16.9797C73.4763 16.9797 72.2452 18.0593 72.003 20.0148Z" fill="white"/>
<path d="M81.961 26.6148V15.4111H83.8581L84.0599 17.4278H84.1205C84.9076 15.9815 86.0781 15.126 87.2689 15.126C87.8138 15.126 88.1569 15.2074 88.5 15.3704L88.0964 17.4074C87.7129 17.2852 87.4303 17.2241 86.9662 17.2241C86.0781 17.2241 84.9883 17.876 84.3021 19.6482V26.6148H81.961Z" fill="white"/>
</svg>
